# xmcd
# 
# Track frame offsets:
#     183
#     12865
#     26758
#     39695
#     53575
#     67135
#     81158
#     95035
#     108390
#     123318
#     136720
#     148793
#     159750
#     170950
#     186770
#     201080
#     214040
#     226968
#     243385
#     256433
#     269573
# 
# Disc length: 3792
# 
# Revision: 0
# Processed by: cddbd v1.5.2PL0 Copyright (c) Steve Scherf et al.
# Submitted via: BonkEnc v1.0.8
# 
DISCID=310ece15
DTITLE=Memphis Minnie - Complete Recorded Works (1935-1941)
DYEAR=0
DGENRE=Blues
TTITLE0=Dirty Mother For You
TTITLE1=Sylvester And His Mule Blues
TTITLE2=When You're Asleep
TTITLE3=You Can't Give It Away
TTITLE4=Let Me Ride
TTITLE5=When The Saints Go Marching Home
TTITLE6=Jockey Man Blues
TTITLE7=Weary Woman Blues
TTITLE8=Reachin' Pete
TTITLE9=Down In New Orleans
TTITLE10=You Wrecked My Happy Home
TTITLE11=I'm Waiting On You
TTITLE12=Keep On Goin'
TTITLE13=Ball And Chain Blues
TTITLE14=He's In The Ring (take A)
TTITLE15=He's In The Ring (Take B)
TTITLE16=Joe Louis Strut
TTITLE17=When The Sun Goes Down - Part 2
TTITLE18=Hustlin' Woman Blues
TTITLE19=Selling My Pork Chops
TTITLE20=Doctor, Doctor Blues
EXTD=
EXTT0=
EXTT1=
EXTT2=
EXTT3=
EXTT4=
EXTT5=
EXTT6=
EXTT7=
EXTT8=
EXTT9=
EXTT10=
EXTT11=
EXTT12=
EXTT13=
EXTT14=
EXTT15=
EXTT16=
EXTT17=
EXTT18=
EXTT19=
EXTT20=
PLAYORDER=
